{
  "accessors": [
    {
      "bufferView": 2,
      "componentType": 5126,
      "count": 44,
      "max": [
        21.3629207611084,
        108.94209289550781,
        14.672043800354004
      ],
      "min": [
        -25.105810165405273,
        100.32505798339844,
        -5.872252464294434
      ],
      "type": "VEC3"
    },
    {
      "bufferView": 2,
      "byteOffset": 528,
      "componentType": 5126,
      "count": 44,
      "max": [
        -0.3239465057849884,
        -0.16621308028697968,
        0.9313603043556213
      ],
      "min": [
        -0.4443865418434143,
        -0.19384002685546875,
        0.8746123909950256
      ],
      "type": "VEC3"
    },
    {
      "bufferView": 3,
      "componentType": 5126,
      "count": 44,
      "max": [
        0.08783955872058868,
        -0.9810331463813782,
        -0.16045095026493073,
        1.0
      ],
      "min": [
        0.044584691524505615,
        -0.9860348105430603,
        -0.1728486269712448,
        -1.0
      ],
      "type": "VEC4"
    },
    {
      "bufferView": 1,
      "componentType": 5126,
      "count": 44,
      "max": [
        0.10398075729608536,
        0.7648473978042603
      ],
      "min": [
        0.00411453889682889,
        0.5890083312988281
      ],
      "type": "VEC2"
    },
    {
      "bufferView": 1,
      "byteOffset": 352,
      "componentType": 5126,
      "count": 44,
      "max": [
        0.0,
        0.0
      ],
      "min": [
        0.0,
        0.0
      ],
      "type": "VEC2"
    },
    {
      "bufferView": 1,
      "byteOffset": 704,
      "componentType": 5126,
      "count": 44,
      "max": [
        0.0,
        0.0
      ],
      "min": [
        0.0,
        0.0
      ],
      "type": "VEC2"
    },
    {
      "bufferView": 1,
      "byteOffset": 1056,
      "componentType": 5126,
      "count": 44,
      "max": [
        0.10398075729608536,
        0.7648473978042603
      ],
      "min": [
        0.00411453889682889,
        0.5890083312988281
      ],
      "type": "VEC2"
    },
    {
      "bufferView": 1,
      "byteOffset": 1408,
      "componentType": 5126,
      "count": 44,
      "max": [
        0.10398075729608536,
        0.7648473978042603
      ],
      "min": [
        0.00411453889682889,
        0.5890083312988281
      ],
      "type": "VEC2"
    },
    {
      "bufferView": 0,
      "componentType": 5125,
      "count": 120,
      "type": "SCALAR"
    },
    {
      "bufferView": 2,
      "byteOffset": 1056,
      "componentType": 5126,
      "count": 21243,
      "max": [
        45.236961364746094,
        110.43985748291016,
        39.6595573425293
      ],
      "min": [
        -26.329055786132813,
        -0.12031197547912598,
        -118.40437316894531
      ],
      "type": "VEC3"
    },
    {
      "bufferView": 2,
      "byteOffset": 255972,
      "componentType": 5126,
      "count": 21243,
      "max": [
        1.0,
        1.0,
        1.0
      ],
      "min": [
        -1.0,
        -1.0,
        -1.0
      ],
      "type": "VEC3"
    },
    {
      "bufferView": 3,
      "byteOffset": 704,
      "componentType": 5126,
      "count": 21243,
      "max": [
        1.0,
        1.0,
        1.0,
        1.0
      ],
      "min": [
        -1.0,
        -1.0,
        -1.0,
        -1.0
      ],
      "type": "VEC4"
    },
    {
      "bufferView": 1,
      "byteOffset": 1760,
      "componentType": 5126,
      "count": 21243,
      "max": [
        0.99588543176651,
        0.9951496124267578
      ],
      "min": [
        0.004114508628845215,
        0.004114508628845215
      ],
      "type": "VEC2"
    },
    {
      "bufferView": 1,
      "byteOffset": 171704,
      "componentType": 5126,
      "count": 21243,
      "max": [
        0.0,
        0.0
      ],
      "min": [
        0.0,
        0.0
      ],
      "type": "VEC2"
    },
    {
      "bufferView": 1,
      "byteOffset": 341648,
      "componentType": 5126,
      "count": 21243,
      "max": [
        0.0,
        0.0
      ],
      "min": [
        0.0,
        0.0
      ],
      "type": "VEC2"
    },
    {
      "bufferView": 1,
      "byteOffset": 511592,
      "componentType": 5126,
      "count": 21243,
      "max": [
        0.99588543176651,
        0.9951496124267578
      ],
      "min": [
        0.004114508628845215,
        0.004114508628845215
      ],
      "type": "VEC2"
    },
    {
      "bufferView": 1,
      "byteOffset": 681536,
      "componentType": 5126,
      "count": 21243,
      "max": [
        0.99588543176651,
        0.9951496124267578
      ],
      "min": [
        0.004114508628845215,
        0.004114508628845215
      ],
      "type": "VEC2"
    },
    {
      "bufferView": 0,
      "byteOffset": 480,
      "componentType": 5125,
      "count": 56832,
      "type": "SCALAR"
    }
  ],
  "asset": {
    "extras": {
      "author": "denis_cliofas (https://sketchfab.com/denis_cliofas)",
      "license": "CC-BY-4.0 (http://creativecommons.org/licenses/by/4.0/)",
      "source": "https://sketchfab.com/3d-models/industrial-work-light-ff0abe17dc64498191bb41c905d00ab0",
      "title": "Industrial Work Light"
    },
    "generator": "Sketchfab-12.65.0",
    "version": "2.0"
  },
  "bufferViews": [
    {
      "buffer": 0,
      "byteLength": 227808,
      "name": "floatBufferViews",
      "target": 34963
    },
    {
      "buffer": 0,
      "byteLength": 851480,
      "byteOffset": 227808,
      "byteStride": 8,
      "name": "floatBufferViews",
      "target": 34962
    },
    {
      "buffer": 0,
      "byteLength": 510888,
      "byteOffset": 1079288,
      "byteStride": 12,
      "name": "floatBufferViews",
      "target": 34962
    },
    {
      "buffer": 0,
      "byteLength": 340592,
      "byteOffset": 1590176,
      "byteStride": 16,
      "name": "floatBufferViews",
      "target": 34962
    }
  ],
  "buffers": [
    {
      "byteLength": 1930768,
      "uri": "scene.bin"
    }
  ],
  "images": [
    {
      "uri": "textures/Industrial_Light_Transparent_baseColor.png"
    },
    {
      "uri": "textures/Industrial_Light_Transparent_metallicRoughness.png"
    },
    {
      "uri": "textures/Industrial_Light_Transparent_normal.png"
    },
    {
      "uri": "textures/Industrial_Light_baseColor.png"
    }
  ],
  "materials": [
    {
      "alphaMode": "BLEND",
      "doubleSided": true,
      "name": "Industrial_Light_Transparent",
      "normalTexture": {
        "index": 2
      },
      "pbrMetallicRoughness": {
        "baseColorFactor": [
          1.0,
          1.0,
          1.0,
          0.75
        ],
        "baseColorTexture": {
          "index": 0
        },
        "metallicRoughnessTexture": {
          "index": 1
        }
      }
    },
    {
      "doubleSided": true,
      "name": "Industrial_Light",
      "normalTexture": {
        "index": 2
      },
      "pbrMetallicRoughness": {
        "baseColorTexture": {
          "index": 3
        },
        "metallicRoughnessTexture": {
          "index": 1
        }
      }
    }
  ],
  "meshes": [
    {
      "name": "Industrial Light_Industrial Light Transparent_0",
      "primitives": [
        {
          "attributes": {
            "NORMAL": 1,
            "POSITION": 0,
            "TANGENT": 2,
            "TEXCOORD_0": 3,
            "TEXCOORD_1": 4,
            "TEXCOORD_2": 5,
            "TEXCOORD_3": 6,
            "TEXCOORD_4": 7
          },
          "indices": 8,
          "material": 0,
          "mode": 4
        }
      ]
    },
    {
      "name": "Industrial Light_Industrial Light_0",
      "primitives": [
        {
          "attributes": {
            "NORMAL": 10,
            "POSITION": 9,
            "TANGENT": 11,
            "TEXCOORD_0": 12,
            "TEXCOORD_1": 13,
            "TEXCOORD_2": 14,
            "TEXCOORD_3": 15,
            "TEXCOORD_4": 16
          },
          "indices": 17,
          "material": 1,
          "mode": 4
        }
      ]
    }
  ],
  "nodes": [
    {
      "children": [
        1
      ],
      "matrix": [
        -1.0,
        0.0,
        0.0,
        0.0,
        0.0,
        -2.220446049250313e-16,
        1.0,
        0.0,
        0.0,
        1.0,
        2.220446049250313e-16,
        0.0,
        18.90787696838379,
        1.7484664161394187e-14,
        -78.74392700195313,
        1.0
      ],
      "name": "Sketchfab_model"
    },
    {
      "children": [
        2
      ],
      "matrix": [
        1.0,
        0.0,
        0.0,
        0.0,
        0.0,
        0.0,
        1.0,
        0.0,
        0.0,
        -1.0,
        0.0,
        0.0,
        0.0,
        0.0,
        0.0,
        1.0
      ],
      "name": "707ff3703dea45179e46d62ed2922f7c.fbx"
    },
    {
      "children": [
        3
      ],
      "name": "RootNode"
    },
    {
      "children": [
        4,
        5
      ],
      "name": "Industrial Light"
    },
    {
      "mesh": 0,
      "name": "Industrial Light_Industrial Light Transparent_0"
    },
    {
      "mesh": 1,
      "name": "Industrial Light_Industrial Light_0"
    }
  ],
  "samplers": [
    {
      "magFilter": 9729,
      "minFilter": 9987,
      "wrapS": 10497,
      "wrapT": 10497
    }
  ],
  "scene": 0,
  "scenes": [
    {
      "name": "Sketchfab_Scene",
      "nodes": [
        0
      ]
    }
  ],
  "textures": [
    {
      "sampler": 0,
      "source": 0
    },
    {
      "sampler": 0,
      "source": 1
    },
    {
      "sampler": 0,
      "source": 2
    },
    {
      "sampler": 0,
      "source": 3
    }
  ]
}
